<svg xmlns="http://www.w3.org/2000/svg" viewBox="0 0 320 240" role="img" aria-labelledby="title">
  <title id="title">Cup</title>
  <rect width="320" height="240" rx="18" fill="#f7fbfa"/>
  <path d="M100 72h108l-12 108c-2 17-16 30-33 30h-18c-17 0-31-13-33-30L100 72z" fill="#315f9a"/>
  <path d="M113 90h82l-9 84c-1 10-10 18-20 18h-25c-10 0-19-8-20-18l-8-84z" fill="#e1ebfa" opacity=".38"/>
  <path d="M207 100h28c21 0 33 17 29 37-5 25-28 38-58 34" fill="none" stroke="#315f9a" stroke-width="18" stroke-linecap="round"/>
  <ellipse cx="154" cy="72" rx="58" ry="17" fill="#dff2eb" stroke="#315f9a" stroke-width="9"/>
  <ellipse cx="160" cy="218" rx="62" ry="10" fill="#dce5e1"/>
</svg>
